Coordinates
nRows=153
nColumns=2
inDegrees=yes
endheader
time	ankle_angle_r	
2.5	  9.216309	
2.5625	  9.292603	
2.625	  9.302775	
2.6875	  9.216309	
2.75	  9.259178	
2.8125	  9.255909	
2.875	  9.280614	
2.9375	  9.277344	
3	  9.250460	
3.0625	  9.292603	
3.125	  9.242830	
3.1875	  9.201050	
3.25	  9.190150	
3.3125	  9.278978	
3.375	  9.286790	
3.4375	  9.266990	
3.5	  9.246826	
3.5625	  9.236835	
3.625	  9.175982	
3.6875	  9.298234	
3.75	  9.338379	
3.8125	  9.301867	
3.875	  9.368896	
3.9375	  9.279887	
4	  9.323120	
4.0625	  9.340196	
4.125	  9.307861	
4.1875	  9.367806	
4.25	  9.323120	
4.3125	  9.361086	
4.375	  9.376526	
4.4375	  9.368896	
4.5	  9.360904	
4.5625	  9.306771	
4.625	  9.278797	
4.6875	  9.284065	
4.75	  9.283883	
4.8125	  9.286244	
4.875	  9.228661	
4.9375	  9.268080	
5	  9.304228	
5.0625	  9.252458	
5.125	  9.262085	
5.1875	  9.297871	
5.25	  9.256999	
5.3125	  9.323665	
5.375	  9.277344	
5.4375	  9.288061	
5.5	  9.357997	
5.5625	  9.257907	
5.625	  9.292603	
5.6875	  9.235382	
5.75	  9.296962	
5.8125	  9.319669	
5.875	  9.307861	
5.9375	  9.365808	
6	  9.368896	
6.0625	  9.338379	
6.125	  9.356181	
6.1875	  9.292603	
6.25	  9.392875	
6.3125	  9.382157	
6.375	  9.365263	
6.4375	  9.380885	
6.5	  9.323120	
6.5625	  9.337108	
6.625	  9.323120	
6.6875	  9.337471	
6.75	  9.368896	
6.8125	  9.308406	
6.875	  9.277344	
6.9375	  9.323301	
7	  9.231567	
7.0625	  9.277344	
7.125	  9.247190	
7.1875	  9.246826	
7.25	  9.276617	
7.3125	  9.231567	
7.375	  9.306771	
7.4375	  9.321849	
7.5	  9.323120	
7.5625	  9.343284	
7.625	  9.307861	
7.6875	  9.342375	
7.75	  9.340559	
7.8125	  9.343102	
7.875	  9.399414	
7.9375	  9.335654	
8	  9.295509	
8.0625	  9.335291	
8.125	  9.323120	
8.1875	  9.384155	
8.25	  9.361630	
8.3125	  9.315491	
8.375	  9.296598	
8.4375	  9.216309	
8.5	  9.246826	
8.5625	  9.220850	
8.625	  9.201050	
8.6875	  9.333474	
8.75	  9.201050	
8.8125	  9.206318	
8.875	  9.184701	
8.9375	  9.140015	
9	  9.185791	
9.0625	  9.146009	
9.125	  9.268261	
9.1875	  9.301503	
9.25	  9.299142	
9.3125	  9.368896	
9.375	  9.291149	
9.4375	  9.346553	
9.5	  9.307861	
9.5625	  9.307861	
9.625	  9.361267	
9.6875	  9.346189	
9.75	  9.361630	
9.8125	  9.375981	
9.875	  9.307861	
9.9375	  9.367080	
10	  9.316581	
10.0625	  9.335835	
10.125	  9.399414	
10.1875	  9.338379	
10.25	  9.397234	
10.3125	  9.328752	
10.375	  9.338379	
10.4375	  9.348370	
10.5	  9.328206	
10.5625	  9.389060	
10.625	  9.368896	
10.6875	  9.327662	
10.75	  9.384155	
10.8125	  9.312039	
10.875	  9.338379	
10.9375	  9.353638	
11	  9.262085	
11.0625	  9.395963	
11.125	  9.307861	
11.1875	  9.292603	
11.25	  9.283156	
11.3125	  9.201050	
11.375	  9.274800	
11.4375	  9.274982	
11.5	  9.246826	
11.5625	  9.277344	
11.625	  9.219942	
11.6875	  9.245192	
11.75	  9.202503	
11.8125	  9.199779	
11.875	  9.264265	
11.9375	  9.185791	
12	  9.292603	
